<?xml version="1.0" encoding="UTF-8" standalone="no"?>
<!-- Created with Inkscape (http://www.inkscape.org/) -->

<svg
   xmlns:dc="http://purl.org/dc/elements/1.1/"
   xmlns:cc="http://creativecommons.org/ns#"
   xmlns:rdf="http://www.w3.org/1999/02/22-rdf-syntax-ns#"
   xmlns:svg="http://www.w3.org/2000/svg"
   xmlns="http://www.w3.org/2000/svg"
   xmlns:xlink="http://www.w3.org/1999/xlink"
   xmlns:sodipodi="http://sodipodi.sourceforge.net/DTD/sodipodi-0.dtd"
   xmlns:inkscape="http://www.inkscape.org/namespaces/inkscape"
   width="24.710196mm"
   height="24.710196mm"
   viewBox="0 0 87.555811 87.555811"
   id="svg2"
   version="1.1"
   inkscape:version="0.92.1 r"
   inkscape:export-filename="/home/caleb/Pictures/FreedomPlanet/gt_logo_vector.png"
   inkscape:export-xdpi="1200.0864"
   inkscape:export-ydpi="1200.0864"
   sodipodi:docname="gt_logo_vector.svg">
  <defs
     id="defs4">
    <linearGradient
       inkscape:collect="always"
       id="linearGradient4883">
      <stop
         style="stop-color:#ffffff;stop-opacity:1"
         offset="0"
         id="stop4879" />
      <stop
         id="stop4887"
         offset="0.35621458"
         style="stop-color:#ffffff;stop-opacity:0.49803922" />
      <stop
         style="stop-color:#a9a9ff;stop-opacity:0"
         offset="1"
         id="stop4881" />
    </linearGradient>
    <linearGradient
       inkscape:collect="always"
       id="linearGradient4865">
      <stop
         style="stop-color:#ececec;stop-opacity:1"
         offset="0"
         id="stop4861" />
      <stop
         id="stop4871"
         offset="0.28000003"
         style="stop-color:#b1b1b1;stop-opacity:1;" />
      <stop
         id="stop4869"
         offset="0.70000005"
         style="stop-color:#666666;stop-opacity:1" />
      <stop
         style="stop-color:#050505;stop-opacity:0.94117647"
         offset="1"
         id="stop4863" />
    </linearGradient>
    <linearGradient
       inkscape:collect="always"
       id="linearGradient4837">
      <stop
         style="stop-color:#ffffff;stop-opacity:1"
         offset="0"
         id="stop4833" />
      <stop
         id="stop4843"
         offset="0.60000002"
         style="stop-color:#ffffff;stop-opacity:1" />
      <stop
         style="stop-color:#000000;stop-opacity:1"
         offset="1"
         id="stop4835" />
    </linearGradient>
    <linearGradient
       inkscape:collect="always"
       id="linearGradient4515">
      <stop
         style="stop-color:#ffffff;stop-opacity:0.86757994"
         offset="0"
         id="stop4511" />
      <stop
         id="stop4827"
         offset="0.9803071"
         style="stop-color:#ffffff;stop-opacity:0.5" />
      <stop
         style="stop-color:#dedede;stop-opacity:1"
         offset="0.99999988"
         id="stop4829" />
    </linearGradient>
    <filter
       inkscape:collect="always"
       style="color-interpolation-filters:sRGB"
       id="filter6600"
       x="-0.0024000001"
       width="1.0048"
       y="-0.0024000001"
       height="1.0048">
      <feGaussianBlur
         inkscape:collect="always"
         stdDeviation="0.080084794"
         id="feGaussianBlur6602" />
    </filter>
    <linearGradient
       inkscape:collect="always"
       xlink:href="#linearGradient4515"
       id="linearGradient4517"
       x1="331.81274"
       y1="534.77856"
       x2="365.48209"
       y2="526.26929"
       gradientUnits="userSpaceOnUse"
       gradientTransform="rotate(90,439.64855,593.78238)" />
    <radialGradient
       inkscape:collect="always"
       xlink:href="#linearGradient4837"
       id="radialGradient4839"
       cx="368.60196"
       cy="525.31976"
       fx="368.60196"
       fy="525.31976"
       r="40.234493"
       gradientTransform="matrix(0.99999968,-0.99999806,0.99999818,0.99999978,-526.17996,372.04654)"
       gradientUnits="userSpaceOnUse" />
    <radialGradient
       inkscape:collect="always"
       xlink:href="#linearGradient4865"
       id="radialGradient4867"
       cx="548.38367"
       cy="580.18561"
       fx="548.38367"
       fy="580.18561"
       r="52.913357"
       gradientTransform="matrix(0.99999926,0.99999321,-0.99999397,0.99999993,526.17894,-630.67657)"
       gradientUnits="userSpaceOnUse" />
    <radialGradient
       inkscape:collect="always"
       xlink:href="#linearGradient4883"
       id="radialGradient4885"
       cx="427.91867"
       cy="609.82642"
       fx="427.91867"
       fy="609.82642"
       r="52.913357"
       gradientTransform="matrix(0.41382801,0.37067546,-0.55668018,0.62148664,653.11247,-37.419822)"
       gradientUnits="userSpaceOnUse" />
    <radialGradient
       inkscape:collect="always"
       xlink:href="#linearGradient4865"
       id="radialGradient4541"
       cx="486.66916"
       cy="518.49744"
       fx="486.66916"
       fy="518.49744"
       r="52.725861"
       gradientTransform="matrix(0.99999932,1.0000061,-1.003557,1.0035501,528.053,-509.12132)"
       gradientUnits="userSpaceOnUse" />
  </defs>
  <sodipodi:namedview
     id="base"
     pagecolor="#c6c6c6"
     bordercolor="#666666"
     borderopacity="1.0"
     inkscape:pageopacity="0"
     inkscape:pageshadow="2"
     inkscape:zoom="4.617977"
     inkscape:cx="214.34338"
     inkscape:cy="39.101666"
     inkscape:document-units="px"
     inkscape:current-layer="layer1"
     showgrid="false"
     inkscape:snap-bbox="true"
     inkscape:snap-bbox-midpoints="false"
     inkscape:snap-page="true"
     inkscape:bbox-paths="false"
     inkscape:bbox-nodes="true"
     inkscape:snap-bbox-edge-midpoints="false"
     inkscape:snap-intersection-paths="true"
     inkscape:object-nodes="true"
     inkscape:snap-smooth-nodes="true"
     inkscape:snap-midpoints="true"
     inkscape:snap-object-midpoints="true"
     inkscape:snap-center="true"
     inkscape:snap-global="true"
     showguides="false"
     fit-margin-top="1"
     fit-margin-left="1"
     fit-margin-right="1"
     fit-margin-bottom="1"
     inkscape:window-width="1912"
     inkscape:window-height="1005"
     inkscape:window-x="0"
     inkscape:window-y="45"
     inkscape:window-maximized="0" />
  <metadata
     id="metadata7">
    <rdf:RDF>
      <cc:Work
         rdf:about="">
        <dc:format>image/svg+xml</dc:format>
        <dc:type
           rdf:resource="http://purl.org/dc/dcmitype/StillImage" />
        <dc:title />
      </cc:Work>
    </rdf:RDF>
  </metadata>
  <g
     inkscape:label="Layer 1"
     inkscape:groupmode="layer"
     id="layer1"
     transform="translate(-328.26933,-482.40318)">
    <ellipse
       ry="52.913387"
       rx="52.913357"
       cy="526.18103"
       cx="507.24988"
       id="ellipse4847"
       style="opacity:0.52999998;fill:url(#radialGradient4867);fill-opacity:1;fill-rule:nonzero;stroke:none;stroke-width:5.87285376;stroke-linecap:round;stroke-linejoin:round;stroke-miterlimit:4;stroke-dasharray:none;stroke-dashoffset:84.0375061;stroke-opacity:0.9908257"
       inkscape:export-xdpi="870.85999"
       inkscape:export-ydpi="870.85999" />
    <ellipse
       style="opacity:1;fill:#0000da;fill-opacity:1;fill-rule:nonzero;stroke:none;stroke-width:5.87285376;stroke-linecap:round;stroke-linejoin:round;stroke-miterlimit:4;stroke-dasharray:none;stroke-dashoffset:84.0375061;stroke-opacity:0.9908257"
       id="path4501"
       cx="507.24988"
       cy="526.18103"
       rx="52.913357"
       ry="52.913387" />
    <path
       id="path4533"
       d="M 454.52402,473.45514 H 559.97574 V 578.90692 H 454.52402 Z"
       style="opacity:1;fill:#0000da;fill-opacity:1;fill-rule:nonzero;stroke:none;stroke-width:0.27235526;stroke-linecap:round;stroke-linejoin:round;stroke-miterlimit:4;stroke-dasharray:none;stroke-dashoffset:84.0375061;stroke-opacity:1" />
    <path
       style="opacity:0.5;fill:url(#radialGradient4541);fill-opacity:1;fill-rule:nonzero;stroke:none;stroke-width:0.27235526;stroke-linecap:round;stroke-linejoin:round;stroke-miterlimit:4;stroke-dasharray:none;stroke-dashoffset:84.0375061;stroke-opacity:1"
       d="M 454.52402,473.45514 H 559.97574 V 578.90692 H 454.52402 Z"
       id="rect4522" />
    <rect
       style="opacity:1;fill:#ffffff;fill-opacity:1;fill-rule:nonzero;stroke:none;stroke-width:6.51188231;stroke-linecap:round;stroke-linejoin:round;stroke-miterlimit:4;stroke-dasharray:none;stroke-dashoffset:84.0375061;stroke-opacity:1"
       id="rect4485"
       width="101.36056"
       height="101.36056"
       x="321.36694"
       y="475.50079"
       inkscape:export-xdpi="454.60999"
       inkscape:export-ydpi="454.60999" />
    <path
       style="fill:#0000da;fill-opacity:1;filter:url(#filter6600)"
       d="m 358.13142,531.82514 c 1.92577,-4.07343 3.05165,2.48184 4.94392,4.69253 4.49259,5.24858 7.73697,6.16342 13.97189,6.16342 8.13133,0 15.92109,-5.18888 20.26675,-13.5 2.71716,-5.19661 4.47542,-18.11681 1.4016,-26.67739 -3.82455,-10.65134 -0.0517,-13.20218 4.94454,-9.66794 3.94778,2.79257 8.46824,9.69318 8.42915,20.21398 -0.0436,11.73215 -2.93228,19.0539 -9.38464,26.6383 -7.25021,8.52224 -17.40444,11.37261 -23.0744,11.16343 -8.71486,-0.32153 -14.15839,-3.04585 -18.79343,-9.08451 -2.7596,-3.59529 -3.12518,-9.05385 -2.70538,-9.94182 z"
       id="path4493"
       inkscape:connector-curvature="0"
       inkscape:transform-center-x="-12.99029"
       inkscape:transform-center-y="-5.0788438" />
    <path
       inkscape:transform-center-y="-12.990287"
       inkscape:transform-center-x="5.0788389"
       inkscape:connector-curvature="0"
       id="path4495"
       d="m 358.13142,531.82514 c 1.92577,-4.07343 3.05165,2.48184 4.94392,4.69253 4.49259,5.24858 7.73697,6.16342 13.97189,6.16342 8.13133,0 15.92109,-5.18888 20.26675,-13.5 2.71716,-5.19661 4.47542,-18.11681 1.4016,-26.67739 -3.82455,-10.65134 -0.0517,-13.20218 4.94454,-9.66794 3.94778,2.79257 8.46824,9.69318 8.42915,20.21398 -0.0436,11.73215 -2.93228,19.0539 -9.38464,26.6383 -7.25021,8.52224 -17.40444,11.37261 -23.0744,11.16343 -8.71486,-0.32153 -14.15839,-3.04585 -18.79343,-9.08451 -2.7596,-3.59529 -3.12518,-9.05385 -2.70538,-9.94182 z"
       style="fill:#0000da;fill-opacity:1;filter:url(#filter6600)"
       transform="rotate(-90,372.04723,526.18106)" />
    <path
       style="fill:#0000da;fill-opacity:1;filter:url(#filter6600)"
       d="m 358.13142,531.82514 c 1.92577,-4.07343 3.05165,2.48184 4.94392,4.69253 4.49259,5.24858 7.73697,6.16342 13.97189,6.16342 8.13133,0 15.92109,-5.18888 20.26675,-13.5 2.71716,-5.19661 4.47542,-18.11681 1.4016,-26.67739 -3.82455,-10.65134 -0.0517,-13.20218 4.94454,-9.66794 3.94778,2.79257 8.46824,9.69318 8.42915,20.21398 -0.0436,11.73215 -2.93228,19.0539 -9.38464,26.6383 -7.25021,8.52224 -17.40444,11.37261 -23.0744,11.16343 -8.71486,-0.32153 -14.15839,-3.04585 -18.79343,-9.08451 -2.7596,-3.59529 -3.12518,-9.05385 -2.70538,-9.94182 z"
       id="path4497"
       inkscape:connector-curvature="0"
       inkscape:transform-center-x="12.990282"
       inkscape:transform-center-y="5.0788421"
       transform="rotate(180,372.04723,526.18106)" />
    <path
       inkscape:transform-center-y="12.990285"
       inkscape:transform-center-x="-5.078847"
       inkscape:connector-curvature="0"
       id="path4499"
       d="m 358.13142,531.82514 c 1.92577,-4.07343 3.05165,2.48184 4.94392,4.69253 4.49259,5.24858 7.73697,6.16342 13.97189,6.16342 8.13133,0 15.92109,-5.18888 20.26675,-13.5 2.71716,-5.19661 4.47542,-18.11681 1.4016,-26.67739 -3.82455,-10.65134 -0.0517,-13.20218 4.94454,-9.66794 3.94778,2.79257 8.46824,9.69318 8.42915,20.21398 -0.0436,11.73215 -2.93228,19.0539 -9.38464,26.6383 -7.25021,8.52224 -17.40444,11.37261 -23.0744,11.16343 -8.71486,-0.32153 -14.15839,-3.04585 -18.79343,-9.08451 -2.7596,-3.59529 -3.12518,-9.05385 -2.70538,-9.94182 z"
       style="fill:#0000da;fill-opacity:1;filter:url(#filter6600)"
       transform="rotate(90,372.04723,526.18106)" />
    <path
       d="m 358.13142,531.82514 c 1.92577,-4.07343 3.05165,2.48184 4.94392,4.69253 4.49259,5.24858 7.73697,6.16342 13.97189,6.16342 8.13133,0 15.92109,-5.18888 20.26675,-13.5 2.71716,-5.19661 4.47542,-18.11681 1.4016,-26.67739 -3.82455,-10.65134 -0.0517,-13.20218 4.94454,-9.66794 3.94778,2.79257 8.46824,9.69318 8.42915,20.21398 -0.0436,11.73215 -2.93228,19.0539 -9.38464,26.6383 -7.25021,8.52224 -17.40444,11.37261 -23.0744,11.16343 -8.71486,-0.32153 -14.15839,-3.04585 -18.79343,-9.08451 -2.7596,-3.59529 -3.12518,-9.05385 -2.70538,-9.94182 z m 8.27173,-19.55989 c 4.07343,1.92577 -2.48184,3.05165 -4.69253,4.94392 -5.24858,4.49259 -6.16342,7.73697 -6.16342,13.97189 0,8.13133 5.18888,15.92109 13.5,20.26675 5.19661,2.71716 18.11681,4.47542 26.67739,1.4016 10.65134,-3.82455 13.20218,-0.0517 9.66794,4.94454 -2.79257,3.94778 -9.69318,8.46824 -20.21398,8.42915 -11.73215,-0.0436 -19.0539,-2.93228 -26.6383,-9.38464 -8.52224,-7.25021 -11.37261,-17.40444 -11.16343,-23.0744 0.32153,-8.71486 3.04585,-14.15839 9.08451,-18.79343 3.59529,-2.7596 9.05385,-3.12518 9.94182,-2.70538 z m 19.55989,8.27173 c -1.92577,4.07343 -3.05165,-2.48184 -4.94392,-4.69253 -4.49259,-5.24858 -7.73697,-6.16342 -13.97189,-6.16342 -8.13133,0 -15.92109,5.18888 -20.26675,13.5 -2.71716,5.19661 -4.47542,18.11681 -1.4016,26.67739 3.82455,10.65134 0.0517,13.20218 -4.94454,9.66794 -3.94778,-2.79257 -8.46824,-9.69318 -8.42915,-20.21398 0.0436,-11.73215 2.93228,-19.0539 9.38464,-26.6383 7.25021,-8.52224 17.40444,-11.37261 23.0744,-11.16343 8.71486,0.32153 14.15839,3.04585 18.79343,9.08451 2.7596,3.59529 3.12518,9.05385 2.70538,9.94182 z m -8.27173,19.55988 c -4.07343,-1.92577 2.48184,-3.05165 4.69253,-4.94392 5.24858,-4.49259 6.16342,-7.73697 6.16342,-13.97189 0,-8.13133 -5.18888,-15.92109 -13.5,-20.26675 -5.19661,-2.71716 -18.11681,-4.47542 -26.67739,-1.4016 -10.65134,3.82455 -13.20218,0.0517 -9.66794,-4.94454 2.79257,-3.94778 9.69318,-8.46824 20.21398,-8.42915 11.73215,0.0436 19.0539,2.93228 26.6383,9.38464 8.52224,7.25021 11.37261,17.40444 11.16343,23.0744 -0.32153,8.71486 -3.04585,14.15839 -9.08451,18.79343 -3.59529,2.7596 -9.05385,3.12518 -9.94182,2.70538 z"
       style="fill:none;fill-opacity:1;filter:url(#filter6600);stroke:#0303ff;stroke-opacity:1;stroke-width:0.37499999;stroke-miterlimit:4;stroke-dasharray:none"
       transform="rotate(90,439.64855,593.78238)"
       id="path4845" />
    <path
       id="path4498"
       transform="rotate(90,439.64855,593.78238)"
       style="fill:#ffffff;fill-opacity:1;filter:url(#filter6600);stroke:none"
       d="m 358.13142,531.82514 c 1.92577,-4.07343 3.05165,2.48184 4.94392,4.69253 4.49259,5.24858 7.73697,6.16342 13.97189,6.16342 8.13133,0 15.92109,-5.18888 20.26675,-13.5 2.71716,-5.19661 4.47542,-18.11681 1.4016,-26.67739 -3.82455,-10.65134 -0.0517,-13.20218 4.94454,-9.66794 3.94778,2.79257 8.46824,9.69318 8.42915,20.21398 -0.0436,11.73215 -2.93228,19.0539 -9.38464,26.6383 -7.25021,8.52224 -17.40444,11.37261 -23.0744,11.16343 -8.71486,-0.32153 -14.15839,-3.04585 -18.79343,-9.08451 -2.7596,-3.59529 -3.12518,-9.05385 -2.70538,-9.94182 z m 8.27173,-19.55989 c 4.07343,1.92577 -2.48184,3.05165 -4.69253,4.94392 -5.24858,4.49259 -6.16342,7.73697 -6.16342,13.97189 0,8.13133 5.18888,15.92109 13.5,20.26675 5.19661,2.71716 18.11681,4.47542 26.67739,1.4016 10.65134,-3.82455 13.20218,-0.0517 9.66794,4.94454 -2.79257,3.94778 -9.69318,8.46824 -20.21398,8.42915 -11.73215,-0.0436 -19.0539,-2.93228 -26.6383,-9.38464 -8.52224,-7.25021 -11.37261,-17.40444 -11.16343,-23.0744 0.32153,-8.71486 3.04585,-14.15839 9.08451,-18.79343 3.59529,-2.7596 9.05385,-3.12518 9.94182,-2.70538 z m 19.55989,8.27173 c -1.92577,4.07343 -3.05165,-2.48184 -4.94392,-4.69253 -4.49259,-5.24858 -7.73697,-6.16342 -13.97189,-6.16342 -8.13133,0 -15.92109,5.18888 -20.26675,13.5 -2.71716,5.19661 -4.47542,18.11681 -1.4016,26.67739 3.82455,10.65134 0.0517,13.20218 -4.94454,9.66794 -3.94778,-2.79257 -8.46824,-9.69318 -8.42915,-20.21398 0.0436,-11.73215 2.93228,-19.0539 9.38464,-26.6383 7.25021,-8.52224 17.40444,-11.37261 23.0744,-11.16343 8.71486,0.32153 14.15839,3.04585 18.79343,9.08451 2.7596,3.59529 3.12518,9.05385 2.70538,9.94182 z m -8.27173,19.55988 c -4.07343,-1.92577 2.48184,-3.05165 4.69253,-4.94392 5.24858,-4.49259 6.16342,-7.73697 6.16342,-13.97189 0,-8.13133 -5.18888,-15.92109 -13.5,-20.26675 -5.19661,-2.71716 -18.11681,-4.47542 -26.67739,-1.4016 -10.65134,3.82455 -13.20218,0.0517 -9.66794,-4.94454 2.79257,-3.94778 9.69318,-8.46824 20.21398,-8.42915 11.73215,0.0436 19.0539,2.93228 26.6383,9.38464 8.52224,7.25021 11.37261,17.40444 11.16343,23.0744 -0.32153,8.71486 -3.04585,14.15839 -9.08451,18.79343 -3.59529,2.7596 -9.05385,3.12518 -9.94182,2.70538 z" />
    <path
       id="path4509"
       style="fill:url(#linearGradient4517);fill-opacity:1;stroke:none;opacity:0.495"
       d="m 501.60579,512.26525 c 4.07343,1.92577 -2.48184,3.05165 -4.69253,4.94392 -5.24858,4.49259 -6.16342,7.73697 -6.16342,13.97189 0,8.13133 5.18888,15.92109 13.5,20.26675 5.19661,2.71716 18.11681,4.47542 26.67739,1.4016 10.65134,-3.82455 13.20218,-0.0517 9.66794,4.94454 -2.79257,3.94778 -9.69318,8.46824 -20.21398,8.42915 -11.73215,-0.0436 -19.0539,-2.93228 -26.6383,-9.38464 -8.52224,-7.25021 -11.37261,-17.40444 -11.16343,-23.0744 0.32153,-8.71486 3.04585,-14.15839 9.08451,-18.79343 3.59529,-2.7596 9.05385,-3.12518 9.94182,-2.70538 z m 19.55989,8.27173 c -1.92577,4.07343 -3.05165,-2.48184 -4.94392,-4.69253 -4.49259,-5.24858 -7.73697,-6.16342 -13.97189,-6.16342 -8.13133,0 -15.92109,5.18888 -20.26675,13.5 -2.71716,5.19661 -4.47542,18.11681 -1.4016,26.67739 3.82455,10.65134 0.0517,13.20218 -4.94454,9.66794 -3.94778,-2.79257 -8.46824,-9.69318 -8.42915,-20.21398 0.0436,-11.73215 2.93228,-19.0539 9.38464,-26.6383 7.25021,-8.52224 17.40444,-11.37261 23.0744,-11.16343 8.71486,0.32153 14.15839,3.04585 18.79343,9.08451 2.7596,3.59529 3.12518,9.05385 2.70538,9.94182 z m -8.27173,19.55989 c -4.07343,-1.92577 2.48184,-3.05165 4.69253,-4.94392 5.24858,-4.49259 6.16342,-7.73697 6.16342,-13.97189 0,-8.13133 -5.18888,-15.92109 -13.5,-20.26675 -5.19661,-2.71716 -18.11681,-4.47542 -26.67739,-1.4016 -10.65134,3.82455 -13.20218,0.0517 -9.66794,-4.94454 2.79257,-3.94778 9.69318,-8.46824 20.21398,-8.42915 11.73215,0.0436 19.0539,2.93228 26.6383,9.38464 8.52224,7.25021 11.37261,17.40444 11.16343,23.0744 -0.32153,8.71486 -3.04585,14.15839 -9.08451,18.79343 -3.59529,2.7596 -9.05385,3.12518 -9.94182,2.70538 z m -19.55988,-8.27173 c 1.92577,-4.07343 3.05165,2.48184 4.94392,4.69253 4.49259,5.24858 7.73697,6.16342 13.97189,6.16342 8.13133,0 15.92109,-5.18888 20.26675,-13.5 2.71716,-5.19661 4.47542,-18.11681 1.4016,-26.67739 -3.82455,-10.65134 -0.0517,-13.20218 4.94454,-9.66794 3.94778,2.79257 8.46824,9.69318 8.42915,20.21398 -0.0436,11.73215 -2.93228,19.0539 -9.38464,26.6383 -7.25021,8.52224 -17.40444,11.37261 -23.0744,11.16343 -8.71486,-0.32153 -14.15839,-3.04585 -18.79343,-9.08451 -2.7596,-3.59529 -3.12518,-9.05385 -2.70538,-9.94182 z"
       inkscape:connector-curvature="0" />
    <path
       d="m 358.13142,531.82514 c 1.92577,-4.07343 3.05165,2.48184 4.94392,4.69253 4.49259,5.24858 7.73697,6.16342 13.97189,6.16342 8.13133,0 15.92109,-5.18888 20.26675,-13.5 2.71716,-5.19661 4.47542,-18.11681 1.4016,-26.67739 -3.82455,-10.65134 -0.0517,-13.20218 4.94454,-9.66794 3.94778,2.79257 8.46824,9.69318 8.42915,20.21398 -0.0436,11.73215 -2.93228,19.0539 -9.38464,26.6383 -7.25021,8.52224 -17.40444,11.37261 -23.0744,11.16343 -8.71486,-0.32153 -14.15839,-3.04585 -18.79343,-9.08451 -2.7596,-3.59529 -3.12518,-9.05385 -2.70538,-9.94182 z m 8.27173,-19.55989 c 4.07343,1.92577 -2.48184,3.05165 -4.69253,4.94392 -5.24858,4.49259 -6.16342,7.73697 -6.16342,13.97189 0,8.13133 5.18888,15.92109 13.5,20.26675 5.19661,2.71716 18.11681,4.47542 26.67739,1.4016 10.65134,-3.82455 13.20218,-0.0517 9.66794,4.94454 -2.79257,3.94778 -9.69318,8.46824 -20.21398,8.42915 -11.73215,-0.0436 -19.0539,-2.93228 -26.6383,-9.38464 -8.52224,-7.25021 -11.37261,-17.40444 -11.16343,-23.0744 0.32153,-8.71486 3.04585,-14.15839 9.08451,-18.79343 3.59529,-2.7596 9.05385,-3.12518 9.94182,-2.70538 z m 19.55989,8.27173 c -1.92577,4.07343 -3.05165,-2.48184 -4.94392,-4.69253 -4.49259,-5.24858 -7.73697,-6.16342 -13.97189,-6.16342 -8.13133,0 -15.92109,5.18888 -20.26675,13.5 -2.71716,5.19661 -4.47542,18.11681 -1.4016,26.67739 3.82455,10.65134 0.0517,13.20218 -4.94454,9.66794 -3.94778,-2.79257 -8.46824,-9.69318 -8.42915,-20.21398 0.0436,-11.73215 2.93228,-19.0539 9.38464,-26.6383 7.25021,-8.52224 17.40444,-11.37261 23.0744,-11.16343 8.71486,0.32153 14.15839,3.04585 18.79343,9.08451 2.7596,3.59529 3.12518,9.05385 2.70538,9.94182 z m -8.27173,19.55988 c -4.07343,-1.92577 2.48184,-3.05165 4.69253,-4.94392 5.24858,-4.49259 6.16342,-7.73697 6.16342,-13.97189 0,-8.13133 -5.18888,-15.92109 -13.5,-20.26675 -5.19661,-2.71716 -18.11681,-4.47542 -26.67739,-1.4016 -10.65134,3.82455 -13.20218,0.0517 -9.66794,-4.94454 2.79257,-3.94778 9.69318,-8.46824 20.21398,-8.42915 11.73215,0.0436 19.0539,2.93228 26.6383,9.38464 8.52224,7.25021 11.37261,17.40444 11.16343,23.0744 -0.32153,8.71486 -3.04585,14.15839 -9.08451,18.79343 -3.59529,2.7596 -9.05385,3.12518 -9.94182,2.70538 z"
       style="fill:url(#radialGradient4839);fill-opacity:1;filter:url(#filter6600);stroke:none;opacity:0.448"
       transform="rotate(90,439.64855,593.78238)"
       id="path4507" />
  </g>
</svg>
